<mxfile host="app.diagrams.net" modified="2023-10-10T18:16:56.922Z" agent="Mozilla/5.0 (Windows NT 10.0; Win64; x64) AppleWebKit/537.36 (KHTML, like Gecko) Chrome/117.0.0.0 Safari/537.36" etag="4UQ3mo6mrPSpb4mLGLip" version="22.0.4" type="device">
  <diagram id="C5RBs43oDa-KdzZeNtuy" name="Page-1">
    <mxGraphModel dx="3187" dy="1684" grid="1" gridSize="10" guides="1" tooltips="1" connect="1" arrows="1" fold="1" page="1" pageScale="1" pageWidth="827" pageHeight="1169" math="0" shadow="0">
      <root>
        <mxCell id="WIyWlLk6GJQsqaUBKTNV-0" />
        <mxCell id="WIyWlLk6GJQsqaUBKTNV-1" parent="WIyWlLk6GJQsqaUBKTNV-0" />
        <mxCell id="zkfFHV4jXpPFQw0GAbJ--0" value="Material" style="swimlane;fontStyle=2;align=center;verticalAlign=top;childLayout=stackLayout;horizontal=1;startSize=26;horizontalStack=0;resizeParent=1;resizeLast=0;collapsible=1;marginBottom=0;rounded=0;shadow=0;strokeWidth=1;" parent="WIyWlLk6GJQsqaUBKTNV-1" vertex="1">
          <mxGeometry x="468" y="20" width="160" height="138" as="geometry">
            <mxRectangle x="230" y="140" width="160" height="26" as="alternateBounds" />
          </mxGeometry>
        </mxCell>
        <mxCell id="zkfFHV4jXpPFQw0GAbJ--1" value="Material Name" style="text;align=left;verticalAlign=top;spacingLeft=4;spacingRight=4;overflow=hidden;rotatable=0;points=[[0,0.5],[1,0.5]];portConstraint=eastwest;" parent="zkfFHV4jXpPFQw0GAbJ--0" vertex="1">
          <mxGeometry y="26" width="160" height="26" as="geometry" />
        </mxCell>
        <mxCell id="zkfFHV4jXpPFQw0GAbJ--2" value="Price" style="text;align=left;verticalAlign=top;spacingLeft=4;spacingRight=4;overflow=hidden;rotatable=0;points=[[0,0.5],[1,0.5]];portConstraint=eastwest;rounded=0;shadow=0;html=0;" parent="zkfFHV4jXpPFQw0GAbJ--0" vertex="1">
          <mxGeometry y="52" width="160" height="26" as="geometry" />
        </mxCell>
        <mxCell id="zkfFHV4jXpPFQw0GAbJ--3" value="Weight" style="text;align=left;verticalAlign=top;spacingLeft=4;spacingRight=4;overflow=hidden;rotatable=0;points=[[0,0.5],[1,0.5]];portConstraint=eastwest;rounded=0;shadow=0;html=0;" parent="zkfFHV4jXpPFQw0GAbJ--0" vertex="1">
          <mxGeometry y="78" width="160" height="26" as="geometry" />
        </mxCell>
        <mxCell id="zkfFHV4jXpPFQw0GAbJ--5" value="Unit" style="text;align=left;verticalAlign=top;spacingLeft=4;spacingRight=4;overflow=hidden;rotatable=0;points=[[0,0.5],[1,0.5]];portConstraint=eastwest;" parent="zkfFHV4jXpPFQw0GAbJ--0" vertex="1">
          <mxGeometry y="104" width="160" height="26" as="geometry" />
        </mxCell>
        <mxCell id="zkfFHV4jXpPFQw0GAbJ--6" value="Finished Good" style="swimlane;fontStyle=0;align=center;verticalAlign=top;childLayout=stackLayout;horizontal=1;startSize=26;horizontalStack=0;resizeParent=1;resizeLast=0;collapsible=1;marginBottom=0;rounded=0;shadow=0;strokeWidth=1;" parent="WIyWlLk6GJQsqaUBKTNV-1" vertex="1">
          <mxGeometry x="308" y="240" width="160" height="60" as="geometry">
            <mxRectangle x="130" y="380" width="160" height="26" as="alternateBounds" />
          </mxGeometry>
        </mxCell>
        <mxCell id="zkfFHV4jXpPFQw0GAbJ--12" value="" style="endArrow=block;endSize=10;endFill=0;shadow=0;strokeWidth=1;rounded=0;edgeStyle=elbowEdgeStyle;elbow=vertical;entryX=0.25;entryY=1;entryDx=0;entryDy=0;" parent="WIyWlLk6GJQsqaUBKTNV-1" source="zkfFHV4jXpPFQw0GAbJ--6" target="zkfFHV4jXpPFQw0GAbJ--0" edge="1">
          <mxGeometry width="160" relative="1" as="geometry">
            <mxPoint x="348" y="203" as="sourcePoint" />
            <mxPoint x="498" y="207" as="targetPoint" />
          </mxGeometry>
        </mxCell>
        <mxCell id="zkfFHV4jXpPFQw0GAbJ--17" value="Component" style="swimlane;fontStyle=0;align=center;verticalAlign=top;childLayout=stackLayout;horizontal=1;startSize=26;horizontalStack=0;resizeParent=1;resizeLast=0;collapsible=1;marginBottom=0;rounded=0;shadow=0;strokeWidth=1;" parent="WIyWlLk6GJQsqaUBKTNV-1" vertex="1">
          <mxGeometry x="628" y="240" width="160" height="63" as="geometry">
            <mxRectangle x="550" y="140" width="160" height="26" as="alternateBounds" />
          </mxGeometry>
        </mxCell>
        <mxCell id="zkfFHV4jXpPFQw0GAbJ--18" value="Supplier" style="text;align=left;verticalAlign=top;spacingLeft=4;spacingRight=4;overflow=hidden;rotatable=0;points=[[0,0.5],[1,0.5]];portConstraint=eastwest;" parent="zkfFHV4jXpPFQw0GAbJ--17" vertex="1">
          <mxGeometry y="26" width="160" height="24" as="geometry" />
        </mxCell>
        <mxCell id="Iv19MnFPwsbPoRR4SzWf-2" value="" style="endArrow=block;endSize=10;endFill=0;shadow=0;strokeWidth=1;rounded=0;edgeStyle=elbowEdgeStyle;elbow=vertical;entryX=0.75;entryY=1;entryDx=0;entryDy=0;" edge="1" parent="WIyWlLk6GJQsqaUBKTNV-1" source="zkfFHV4jXpPFQw0GAbJ--17" target="zkfFHV4jXpPFQw0GAbJ--0">
          <mxGeometry width="160" relative="1" as="geometry">
            <mxPoint x="278" y="270" as="sourcePoint" />
            <mxPoint x="558" y="160" as="targetPoint" />
          </mxGeometry>
        </mxCell>
        <mxCell id="Iv19MnFPwsbPoRR4SzWf-4" value="" style="endArrow=none;html=1;rounded=0;exitX=1;exitY=0.25;exitDx=0;exitDy=0;entryX=0;entryY=0.25;entryDx=0;entryDy=0;targetPerimeterSpacing=0;" edge="1" parent="WIyWlLk6GJQsqaUBKTNV-1" source="zkfFHV4jXpPFQw0GAbJ--6" target="zkfFHV4jXpPFQw0GAbJ--17">
          <mxGeometry width="50" height="50" relative="1" as="geometry">
            <mxPoint x="348" y="299" as="sourcePoint" />
            <mxPoint x="698" y="340" as="targetPoint" />
          </mxGeometry>
        </mxCell>
        <mxCell id="Iv19MnFPwsbPoRR4SzWf-28" value="0..n" style="edgeLabel;html=1;align=center;verticalAlign=middle;resizable=0;points=[];" vertex="1" connectable="0" parent="Iv19MnFPwsbPoRR4SzWf-4">
          <mxGeometry x="-0.8197" y="4" relative="1" as="geometry">
            <mxPoint x="6" as="offset" />
          </mxGeometry>
        </mxCell>
        <mxCell id="Iv19MnFPwsbPoRR4SzWf-29" value="1..n" style="edgeLabel;html=1;align=center;verticalAlign=middle;resizable=0;points=[];" vertex="1" connectable="0" parent="Iv19MnFPwsbPoRR4SzWf-4">
          <mxGeometry x="0.0833" y="1" relative="1" as="geometry">
            <mxPoint x="53" as="offset" />
          </mxGeometry>
        </mxCell>
        <mxCell id="Iv19MnFPwsbPoRR4SzWf-9" value="Customer Order" style="swimlane;fontStyle=0;align=center;verticalAlign=top;childLayout=stackLayout;horizontal=1;startSize=26;horizontalStack=0;resizeParent=1;resizeLast=0;collapsible=1;marginBottom=0;rounded=0;shadow=0;strokeWidth=1;" vertex="1" parent="WIyWlLk6GJQsqaUBKTNV-1">
          <mxGeometry x="308" y="360" width="160" height="146" as="geometry">
            <mxRectangle x="550" y="140" width="160" height="26" as="alternateBounds" />
          </mxGeometry>
        </mxCell>
        <mxCell id="Iv19MnFPwsbPoRR4SzWf-10" value="Customer ID" style="text;align=left;verticalAlign=top;spacingLeft=4;spacingRight=4;overflow=hidden;rotatable=0;points=[[0,0.5],[1,0.5]];portConstraint=eastwest;" vertex="1" parent="Iv19MnFPwsbPoRR4SzWf-9">
          <mxGeometry y="26" width="160" height="24" as="geometry" />
        </mxCell>
        <mxCell id="Iv19MnFPwsbPoRR4SzWf-11" value="Order Date" style="text;align=left;verticalAlign=top;spacingLeft=4;spacingRight=4;overflow=hidden;rotatable=0;points=[[0,0.5],[1,0.5]];portConstraint=eastwest;" vertex="1" parent="Iv19MnFPwsbPoRR4SzWf-9">
          <mxGeometry y="50" width="160" height="24" as="geometry" />
        </mxCell>
        <mxCell id="Iv19MnFPwsbPoRR4SzWf-12" value="Product Name" style="text;align=left;verticalAlign=top;spacingLeft=4;spacingRight=4;overflow=hidden;rotatable=0;points=[[0,0.5],[1,0.5]];portConstraint=eastwest;" vertex="1" parent="Iv19MnFPwsbPoRR4SzWf-9">
          <mxGeometry y="74" width="160" height="24" as="geometry" />
        </mxCell>
        <mxCell id="Iv19MnFPwsbPoRR4SzWf-13" value="Product Quantity" style="text;align=left;verticalAlign=top;spacingLeft=4;spacingRight=4;overflow=hidden;rotatable=0;points=[[0,0.5],[1,0.5]];portConstraint=eastwest;" vertex="1" parent="Iv19MnFPwsbPoRR4SzWf-9">
          <mxGeometry y="98" width="160" height="24" as="geometry" />
        </mxCell>
        <mxCell id="Iv19MnFPwsbPoRR4SzWf-14" value="Requested Delivery Date" style="text;align=left;verticalAlign=top;spacingLeft=4;spacingRight=4;overflow=hidden;rotatable=0;points=[[0,0.5],[1,0.5]];portConstraint=eastwest;" vertex="1" parent="Iv19MnFPwsbPoRR4SzWf-9">
          <mxGeometry y="122" width="160" height="24" as="geometry" />
        </mxCell>
        <mxCell id="Iv19MnFPwsbPoRR4SzWf-15" value="Customer " style="swimlane;fontStyle=0;align=center;verticalAlign=top;childLayout=stackLayout;horizontal=1;startSize=26;horizontalStack=0;resizeParent=1;resizeLast=0;collapsible=1;marginBottom=0;rounded=0;shadow=0;strokeWidth=1;" vertex="1" parent="WIyWlLk6GJQsqaUBKTNV-1">
          <mxGeometry x="68" y="360" width="160" height="110" as="geometry">
            <mxRectangle x="550" y="140" width="160" height="26" as="alternateBounds" />
          </mxGeometry>
        </mxCell>
        <mxCell id="Iv19MnFPwsbPoRR4SzWf-16" value="Customer ID" style="text;align=left;verticalAlign=top;spacingLeft=4;spacingRight=4;overflow=hidden;rotatable=0;points=[[0,0.5],[1,0.5]];portConstraint=eastwest;" vertex="1" parent="Iv19MnFPwsbPoRR4SzWf-15">
          <mxGeometry y="26" width="160" height="24" as="geometry" />
        </mxCell>
        <mxCell id="Iv19MnFPwsbPoRR4SzWf-17" value="Customer Name   " style="text;align=left;verticalAlign=top;spacingLeft=4;spacingRight=4;overflow=hidden;rotatable=0;points=[[0,0.5],[1,0.5]];portConstraint=eastwest;" vertex="1" parent="Iv19MnFPwsbPoRR4SzWf-15">
          <mxGeometry y="50" width="160" height="24" as="geometry" />
        </mxCell>
        <mxCell id="Iv19MnFPwsbPoRR4SzWf-18" value="Customer Adress" style="text;align=left;verticalAlign=top;spacingLeft=4;spacingRight=4;overflow=hidden;rotatable=0;points=[[0,0.5],[1,0.5]];portConstraint=eastwest;" vertex="1" parent="Iv19MnFPwsbPoRR4SzWf-15">
          <mxGeometry y="74" width="160" height="24" as="geometry" />
        </mxCell>
        <mxCell id="Iv19MnFPwsbPoRR4SzWf-21" value="" style="endArrow=none;html=1;rounded=0;exitX=0;exitY=0.5;exitDx=0;exitDy=0;" edge="1" parent="WIyWlLk6GJQsqaUBKTNV-1" source="Iv19MnFPwsbPoRR4SzWf-11" target="Iv19MnFPwsbPoRR4SzWf-17">
          <mxGeometry width="50" height="50" relative="1" as="geometry">
            <mxPoint x="738" y="380" as="sourcePoint" />
            <mxPoint x="788" y="330" as="targetPoint" />
          </mxGeometry>
        </mxCell>
        <mxCell id="Iv19MnFPwsbPoRR4SzWf-24" value="1" style="edgeLabel;html=1;align=center;verticalAlign=middle;resizable=0;points=[];" vertex="1" connectable="0" parent="Iv19MnFPwsbPoRR4SzWf-21">
          <mxGeometry x="0.1944" y="3" relative="1" as="geometry">
            <mxPoint x="-22" y="-3" as="offset" />
          </mxGeometry>
        </mxCell>
        <mxCell id="Iv19MnFPwsbPoRR4SzWf-25" value="0..n" style="edgeLabel;html=1;align=center;verticalAlign=middle;resizable=0;points=[];" vertex="1" connectable="0" parent="Iv19MnFPwsbPoRR4SzWf-21">
          <mxGeometry x="-0.0278" relative="1" as="geometry">
            <mxPoint x="19" as="offset" />
          </mxGeometry>
        </mxCell>
        <mxCell id="Iv19MnFPwsbPoRR4SzWf-23" value="" style="endArrow=none;html=1;rounded=0;entryX=0.5;entryY=1;entryDx=0;entryDy=0;" edge="1" parent="WIyWlLk6GJQsqaUBKTNV-1" source="Iv19MnFPwsbPoRR4SzWf-9" target="zkfFHV4jXpPFQw0GAbJ--6">
          <mxGeometry width="50" height="50" relative="1" as="geometry">
            <mxPoint x="738" y="380" as="sourcePoint" />
            <mxPoint x="788" y="330" as="targetPoint" />
          </mxGeometry>
        </mxCell>
        <mxCell id="Iv19MnFPwsbPoRR4SzWf-26" value="0..n" style="edgeLabel;html=1;align=center;verticalAlign=middle;resizable=0;points=[];" vertex="1" connectable="0" parent="Iv19MnFPwsbPoRR4SzWf-23">
          <mxGeometry x="-0.4889" y="-3" relative="1" as="geometry">
            <mxPoint y="6" as="offset" />
          </mxGeometry>
        </mxCell>
        <mxCell id="Iv19MnFPwsbPoRR4SzWf-27" value="1" style="edgeLabel;html=1;align=center;verticalAlign=middle;resizable=0;points=[];" vertex="1" connectable="0" parent="Iv19MnFPwsbPoRR4SzWf-23">
          <mxGeometry x="0.437" y="-1" relative="1" as="geometry">
            <mxPoint y="-7" as="offset" />
          </mxGeometry>
        </mxCell>
        <mxCell id="Iv19MnFPwsbPoRR4SzWf-30" value="Production Order" style="swimlane;fontStyle=0;align=center;verticalAlign=top;childLayout=stackLayout;horizontal=1;startSize=26;horizontalStack=0;resizeParent=1;resizeLast=0;collapsible=1;marginBottom=0;rounded=0;shadow=0;strokeWidth=1;" vertex="1" parent="WIyWlLk6GJQsqaUBKTNV-1">
          <mxGeometry x="178" y="600" width="160" height="110" as="geometry">
            <mxRectangle x="550" y="140" width="160" height="26" as="alternateBounds" />
          </mxGeometry>
        </mxCell>
        <mxCell id="Iv19MnFPwsbPoRR4SzWf-34" value="Purchase Order" style="swimlane;fontStyle=0;align=center;verticalAlign=top;childLayout=stackLayout;horizontal=1;startSize=26;horizontalStack=0;resizeParent=1;resizeLast=0;collapsible=1;marginBottom=0;rounded=0;shadow=0;strokeWidth=1;" vertex="1" parent="WIyWlLk6GJQsqaUBKTNV-1">
          <mxGeometry x="378" y="600" width="160" height="110" as="geometry">
            <mxRectangle x="550" y="140" width="160" height="26" as="alternateBounds" />
          </mxGeometry>
        </mxCell>
        <mxCell id="Iv19MnFPwsbPoRR4SzWf-35" value="Component ID" style="text;align=left;verticalAlign=top;spacingLeft=4;spacingRight=4;overflow=hidden;rotatable=0;points=[[0,0.5],[1,0.5]];portConstraint=eastwest;" vertex="1" parent="Iv19MnFPwsbPoRR4SzWf-34">
          <mxGeometry y="26" width="160" height="24" as="geometry" />
        </mxCell>
        <mxCell id="Iv19MnFPwsbPoRR4SzWf-36" value="Purchase Order (?)" style="text;align=left;verticalAlign=top;spacingLeft=4;spacingRight=4;overflow=hidden;rotatable=0;points=[[0,0.5],[1,0.5]];portConstraint=eastwest;fontColor=#FF0000;" vertex="1" parent="Iv19MnFPwsbPoRR4SzWf-34">
          <mxGeometry y="50" width="160" height="24" as="geometry" />
        </mxCell>
        <mxCell id="Iv19MnFPwsbPoRR4SzWf-38" value="Transfer Order" style="swimlane;fontStyle=0;align=center;verticalAlign=top;childLayout=stackLayout;horizontal=1;startSize=26;horizontalStack=0;resizeParent=1;resizeLast=0;collapsible=1;marginBottom=0;rounded=0;shadow=0;strokeWidth=1;" vertex="1" parent="WIyWlLk6GJQsqaUBKTNV-1">
          <mxGeometry x="178" y="800" width="160" height="110" as="geometry">
            <mxRectangle x="550" y="140" width="160" height="26" as="alternateBounds" />
          </mxGeometry>
        </mxCell>
        <mxCell id="Iv19MnFPwsbPoRR4SzWf-39" value="Supplier" style="swimlane;fontStyle=0;align=center;verticalAlign=top;childLayout=stackLayout;horizontal=1;startSize=26;horizontalStack=0;resizeParent=1;resizeLast=0;collapsible=1;marginBottom=0;rounded=0;shadow=0;strokeWidth=1;" vertex="1" parent="WIyWlLk6GJQsqaUBKTNV-1">
          <mxGeometry x="378" y="800" width="160" height="110" as="geometry">
            <mxRectangle x="550" y="140" width="160" height="26" as="alternateBounds" />
          </mxGeometry>
        </mxCell>
        <mxCell id="Iv19MnFPwsbPoRR4SzWf-40" value="Delivery" style="swimlane;fontStyle=0;align=center;verticalAlign=top;childLayout=stackLayout;horizontal=1;startSize=26;horizontalStack=0;resizeParent=1;resizeLast=0;collapsible=1;marginBottom=0;rounded=0;shadow=0;strokeWidth=1;" vertex="1" parent="WIyWlLk6GJQsqaUBKTNV-1">
          <mxGeometry x="628" y="430" width="160" height="110" as="geometry">
            <mxRectangle x="550" y="140" width="160" height="26" as="alternateBounds" />
          </mxGeometry>
        </mxCell>
        <mxCell id="Iv19MnFPwsbPoRR4SzWf-41" value="Delivery ID" style="text;align=left;verticalAlign=top;spacingLeft=4;spacingRight=4;overflow=hidden;rotatable=0;points=[[0,0.5],[1,0.5]];portConstraint=eastwest;" vertex="1" parent="Iv19MnFPwsbPoRR4SzWf-40">
          <mxGeometry y="26" width="160" height="24" as="geometry" />
        </mxCell>
        <mxCell id="Iv19MnFPwsbPoRR4SzWf-43" value="Transport Supplier (?)" style="swimlane;fontStyle=0;align=center;verticalAlign=top;childLayout=stackLayout;horizontal=1;startSize=26;horizontalStack=0;resizeParent=1;resizeLast=0;collapsible=1;marginBottom=0;rounded=0;shadow=0;strokeWidth=1;fontColor=#FF0000;" vertex="1" parent="WIyWlLk6GJQsqaUBKTNV-1">
          <mxGeometry x="628" y="800" width="160" height="110" as="geometry">
            <mxRectangle x="550" y="140" width="160" height="26" as="alternateBounds" />
          </mxGeometry>
        </mxCell>
        <mxCell id="Iv19MnFPwsbPoRR4SzWf-45" value="External Partner" style="swimlane;fontStyle=0;align=center;verticalAlign=top;childLayout=stackLayout;horizontal=1;startSize=26;horizontalStack=0;resizeParent=1;resizeLast=0;collapsible=1;marginBottom=0;rounded=0;shadow=0;strokeWidth=1;" vertex="1" parent="WIyWlLk6GJQsqaUBKTNV-1">
          <mxGeometry x="378" y="980" width="160" height="110" as="geometry">
            <mxRectangle x="550" y="140" width="160" height="26" as="alternateBounds" />
          </mxGeometry>
        </mxCell>
        <mxCell id="Iv19MnFPwsbPoRR4SzWf-46" value="Email" style="text;align=left;verticalAlign=top;spacingLeft=4;spacingRight=4;overflow=hidden;rotatable=0;points=[[0,0.5],[1,0.5]];portConstraint=eastwest;" vertex="1" parent="Iv19MnFPwsbPoRR4SzWf-45">
          <mxGeometry y="26" width="160" height="24" as="geometry" />
        </mxCell>
        <mxCell id="Iv19MnFPwsbPoRR4SzWf-47" value="Partner ID" style="text;align=left;verticalAlign=top;spacingLeft=4;spacingRight=4;overflow=hidden;rotatable=0;points=[[0,0.5],[1,0.5]];portConstraint=eastwest;fontColor=#000000;" vertex="1" parent="Iv19MnFPwsbPoRR4SzWf-45">
          <mxGeometry y="50" width="160" height="24" as="geometry" />
        </mxCell>
        <mxCell id="Iv19MnFPwsbPoRR4SzWf-48" value="" style="endArrow=block;endSize=10;endFill=0;shadow=0;strokeWidth=1;rounded=0;edgeStyle=elbowEdgeStyle;elbow=vertical;exitX=0.5;exitY=1;exitDx=0;exitDy=0;entryX=1;entryY=0.5;entryDx=0;entryDy=0;" edge="1" parent="WIyWlLk6GJQsqaUBKTNV-1" source="Iv19MnFPwsbPoRR4SzWf-43" target="Iv19MnFPwsbPoRR4SzWf-46">
          <mxGeometry width="160" relative="1" as="geometry">
            <mxPoint x="648" y="1012" as="sourcePoint" />
            <mxPoint x="598" y="1040" as="targetPoint" />
            <Array as="points">
              <mxPoint x="618" y="1018" />
            </Array>
          </mxGeometry>
        </mxCell>
        <mxCell id="Iv19MnFPwsbPoRR4SzWf-49" value="" style="endArrow=block;endSize=10;endFill=0;shadow=0;strokeWidth=1;rounded=0;edgeStyle=elbowEdgeStyle;elbow=vertical;entryX=0;entryY=0.5;entryDx=0;entryDy=0;exitX=0;exitY=0.5;exitDx=0;exitDy=0;" edge="1" parent="WIyWlLk6GJQsqaUBKTNV-1" source="Iv19MnFPwsbPoRR4SzWf-17" target="Iv19MnFPwsbPoRR4SzWf-46">
          <mxGeometry width="160" relative="1" as="geometry">
            <mxPoint x="28" y="1102" as="sourcePoint" />
            <mxPoint x="148" y="1020" as="targetPoint" />
            <Array as="points">
              <mxPoint x="38" y="520" />
              <mxPoint x="198" y="1018" />
            </Array>
          </mxGeometry>
        </mxCell>
        <mxCell id="Iv19MnFPwsbPoRR4SzWf-50" value="" style="endArrow=block;endSize=10;endFill=0;shadow=0;strokeWidth=1;rounded=0;edgeStyle=elbowEdgeStyle;elbow=vertical;exitX=0.5;exitY=1;exitDx=0;exitDy=0;" edge="1" parent="WIyWlLk6GJQsqaUBKTNV-1" source="Iv19MnFPwsbPoRR4SzWf-39" target="Iv19MnFPwsbPoRR4SzWf-45">
          <mxGeometry width="160" relative="1" as="geometry">
            <mxPoint x="748" y="1102" as="sourcePoint" />
            <mxPoint x="868" y="1020" as="targetPoint" />
          </mxGeometry>
        </mxCell>
        <mxCell id="Iv19MnFPwsbPoRR4SzWf-51" value="" style="endArrow=none;html=1;rounded=0;exitX=0.25;exitY=0;exitDx=0;exitDy=0;entryX=0;entryY=0.5;entryDx=0;entryDy=0;" edge="1" parent="WIyWlLk6GJQsqaUBKTNV-1" source="Iv19MnFPwsbPoRR4SzWf-30" target="zkfFHV4jXpPFQw0GAbJ--6">
          <mxGeometry width="50" height="50" relative="1" as="geometry">
            <mxPoint x="508" y="556" as="sourcePoint" />
            <mxPoint x="558" y="506" as="targetPoint" />
            <Array as="points">
              <mxPoint x="218" y="540" />
              <mxPoint x="268" y="540" />
              <mxPoint x="268" y="420" />
              <mxPoint x="268" y="270" />
            </Array>
          </mxGeometry>
        </mxCell>
        <mxCell id="Iv19MnFPwsbPoRR4SzWf-53" value="1" style="edgeLabel;html=1;align=center;verticalAlign=middle;resizable=0;points=[];" vertex="1" connectable="0" parent="Iv19MnFPwsbPoRR4SzWf-51">
          <mxGeometry x="0.9153" y="1" relative="1" as="geometry">
            <mxPoint as="offset" />
          </mxGeometry>
        </mxCell>
        <mxCell id="Iv19MnFPwsbPoRR4SzWf-54" value="0..n" style="edgeLabel;html=1;align=center;verticalAlign=middle;resizable=0;points=[];" vertex="1" connectable="0" parent="Iv19MnFPwsbPoRR4SzWf-51">
          <mxGeometry x="-0.8794" y="-2" relative="1" as="geometry">
            <mxPoint as="offset" />
          </mxGeometry>
        </mxCell>
        <mxCell id="Iv19MnFPwsbPoRR4SzWf-52" value="" style="endArrow=none;html=1;rounded=0;exitX=0.25;exitY=0;exitDx=0;exitDy=0;" edge="1" parent="WIyWlLk6GJQsqaUBKTNV-1" source="Iv19MnFPwsbPoRR4SzWf-34">
          <mxGeometry width="50" height="50" relative="1" as="geometry">
            <mxPoint x="688" y="566" as="sourcePoint" />
            <mxPoint x="418" y="500" as="targetPoint" />
          </mxGeometry>
        </mxCell>
        <mxCell id="Iv19MnFPwsbPoRR4SzWf-59" value="1..n" style="edgeLabel;html=1;align=center;verticalAlign=middle;resizable=0;points=[];" vertex="1" connectable="0" parent="Iv19MnFPwsbPoRR4SzWf-52">
          <mxGeometry x="0.5733" y="2" relative="1" as="geometry">
            <mxPoint as="offset" />
          </mxGeometry>
        </mxCell>
        <mxCell id="Iv19MnFPwsbPoRR4SzWf-60" value="0..n" style="edgeLabel;html=1;align=center;verticalAlign=middle;resizable=0;points=[];" vertex="1" connectable="0" parent="Iv19MnFPwsbPoRR4SzWf-52">
          <mxGeometry x="-0.6711" y="1" relative="1" as="geometry">
            <mxPoint as="offset" />
          </mxGeometry>
        </mxCell>
        <mxCell id="Iv19MnFPwsbPoRR4SzWf-55" value="" style="endArrow=none;html=1;rounded=0;entryX=0;entryY=0.5;entryDx=0;entryDy=0;" edge="1" parent="WIyWlLk6GJQsqaUBKTNV-1" source="Iv19MnFPwsbPoRR4SzWf-13" target="Iv19MnFPwsbPoRR4SzWf-41">
          <mxGeometry width="50" height="50" relative="1" as="geometry">
            <mxPoint x="698" y="576" as="sourcePoint" />
            <mxPoint x="748" y="526" as="targetPoint" />
          </mxGeometry>
        </mxCell>
        <mxCell id="Iv19MnFPwsbPoRR4SzWf-68" value="&lt;font color=&quot;#ff0000&quot;&gt;???&lt;/font&gt;" style="edgeLabel;html=1;align=center;verticalAlign=middle;resizable=0;points=[];" vertex="1" connectable="0" parent="Iv19MnFPwsbPoRR4SzWf-55">
          <mxGeometry x="-0.8195" y="-1" relative="1" as="geometry">
            <mxPoint as="offset" />
          </mxGeometry>
        </mxCell>
        <mxCell id="Iv19MnFPwsbPoRR4SzWf-69" value="&lt;font color=&quot;#ff0000&quot;&gt;???&lt;/font&gt;" style="edgeLabel;html=1;align=center;verticalAlign=middle;resizable=0;points=[];" vertex="1" connectable="0" parent="Iv19MnFPwsbPoRR4SzWf-55">
          <mxGeometry x="0.8196" y="1" relative="1" as="geometry">
            <mxPoint as="offset" />
          </mxGeometry>
        </mxCell>
        <mxCell id="Iv19MnFPwsbPoRR4SzWf-56" value="" style="endArrow=none;html=1;rounded=0;entryX=0.174;entryY=1.13;entryDx=0;entryDy=0;entryPerimeter=0;exitX=0.5;exitY=0;exitDx=0;exitDy=0;" edge="1" parent="WIyWlLk6GJQsqaUBKTNV-1" source="Iv19MnFPwsbPoRR4SzWf-30" target="Iv19MnFPwsbPoRR4SzWf-14">
          <mxGeometry width="50" height="50" relative="1" as="geometry">
            <mxPoint x="708" y="586" as="sourcePoint" />
            <mxPoint x="758" y="536" as="targetPoint" />
            <Array as="points">
              <mxPoint x="258" y="560" />
              <mxPoint x="336" y="560" />
            </Array>
          </mxGeometry>
        </mxCell>
        <mxCell id="Iv19MnFPwsbPoRR4SzWf-57" value="1..n" style="edgeLabel;html=1;align=center;verticalAlign=middle;resizable=0;points=[];" vertex="1" connectable="0" parent="Iv19MnFPwsbPoRR4SzWf-56">
          <mxGeometry x="0.6725" y="-1" relative="1" as="geometry">
            <mxPoint y="-10" as="offset" />
          </mxGeometry>
        </mxCell>
        <mxCell id="Iv19MnFPwsbPoRR4SzWf-58" value="0..n" style="edgeLabel;html=1;align=center;verticalAlign=middle;resizable=0;points=[];" vertex="1" connectable="0" parent="Iv19MnFPwsbPoRR4SzWf-56">
          <mxGeometry x="-0.6758" relative="1" as="geometry">
            <mxPoint y="1" as="offset" />
          </mxGeometry>
        </mxCell>
        <mxCell id="Iv19MnFPwsbPoRR4SzWf-61" value="" style="endArrow=none;html=1;rounded=0;entryX=0.25;entryY=1;entryDx=0;entryDy=0;exitX=0.75;exitY=0;exitDx=0;exitDy=0;" edge="1" parent="WIyWlLk6GJQsqaUBKTNV-1" source="Iv19MnFPwsbPoRR4SzWf-30" target="zkfFHV4jXpPFQw0GAbJ--17">
          <mxGeometry width="50" height="50" relative="1" as="geometry">
            <mxPoint x="328" y="590" as="sourcePoint" />
            <mxPoint x="758" y="536" as="targetPoint" />
            <Array as="points">
              <mxPoint x="298" y="570" />
              <mxPoint x="538" y="570" />
              <mxPoint x="538" y="330" />
              <mxPoint x="668" y="330" />
            </Array>
          </mxGeometry>
        </mxCell>
        <mxCell id="Iv19MnFPwsbPoRR4SzWf-63" value="1..n" style="edgeLabel;html=1;align=center;verticalAlign=middle;resizable=0;points=[];" vertex="1" connectable="0" parent="Iv19MnFPwsbPoRR4SzWf-61">
          <mxGeometry x="0.9617" y="-3" relative="1" as="geometry">
            <mxPoint as="offset" />
          </mxGeometry>
        </mxCell>
        <mxCell id="Iv19MnFPwsbPoRR4SzWf-64" value="&lt;font color=&quot;#ff0000&quot;&gt;???&lt;/font&gt;" style="edgeLabel;html=1;align=center;verticalAlign=middle;resizable=0;points=[];" vertex="1" connectable="0" parent="Iv19MnFPwsbPoRR4SzWf-61">
          <mxGeometry x="-0.9507" y="-4" relative="1" as="geometry">
            <mxPoint as="offset" />
          </mxGeometry>
        </mxCell>
        <mxCell id="Iv19MnFPwsbPoRR4SzWf-65" value="" style="endArrow=none;html=1;rounded=0;entryX=0.5;entryY=1;entryDx=0;entryDy=0;exitX=1;exitY=0.5;exitDx=0;exitDy=0;" edge="1" parent="WIyWlLk6GJQsqaUBKTNV-1" source="Iv19MnFPwsbPoRR4SzWf-35" target="zkfFHV4jXpPFQw0GAbJ--17">
          <mxGeometry width="50" height="50" relative="1" as="geometry">
            <mxPoint x="708" y="586" as="sourcePoint" />
            <mxPoint x="758" y="536" as="targetPoint" />
            <Array as="points">
              <mxPoint x="588" y="638" />
              <mxPoint x="588" y="380" />
              <mxPoint x="708" y="380" />
            </Array>
          </mxGeometry>
        </mxCell>
        <mxCell id="Iv19MnFPwsbPoRR4SzWf-66" value="1" style="edgeLabel;html=1;align=center;verticalAlign=middle;resizable=0;points=[];" vertex="1" connectable="0" parent="Iv19MnFPwsbPoRR4SzWf-65">
          <mxGeometry x="0.9406" relative="1" as="geometry">
            <mxPoint as="offset" />
          </mxGeometry>
        </mxCell>
        <mxCell id="Iv19MnFPwsbPoRR4SzWf-67" value="0..n" style="edgeLabel;html=1;align=center;verticalAlign=middle;resizable=0;points=[];" vertex="1" connectable="0" parent="Iv19MnFPwsbPoRR4SzWf-65">
          <mxGeometry x="-0.912" y="-2" relative="1" as="geometry">
            <mxPoint as="offset" />
          </mxGeometry>
        </mxCell>
        <mxCell id="Iv19MnFPwsbPoRR4SzWf-70" value="" style="endArrow=none;html=1;rounded=0;entryX=0.75;entryY=1;entryDx=0;entryDy=0;exitX=0.75;exitY=0;exitDx=0;exitDy=0;" edge="1" parent="WIyWlLk6GJQsqaUBKTNV-1" source="Iv19MnFPwsbPoRR4SzWf-43" target="Iv19MnFPwsbPoRR4SzWf-40">
          <mxGeometry width="50" height="50" relative="1" as="geometry">
            <mxPoint x="738" y="960" as="sourcePoint" />
            <mxPoint x="818" y="910" as="targetPoint" />
          </mxGeometry>
        </mxCell>
        <mxCell id="Iv19MnFPwsbPoRR4SzWf-83" value="&lt;font color=&quot;#ff0000&quot;&gt;???&lt;/font&gt;" style="edgeLabel;html=1;align=center;verticalAlign=middle;resizable=0;points=[];" vertex="1" connectable="0" parent="Iv19MnFPwsbPoRR4SzWf-70">
          <mxGeometry x="0.8615" y="2" relative="1" as="geometry">
            <mxPoint as="offset" />
          </mxGeometry>
        </mxCell>
        <mxCell id="Iv19MnFPwsbPoRR4SzWf-84" value="&lt;font color=&quot;#ff0000&quot;&gt;???&lt;/font&gt;" style="edgeLabel;html=1;align=center;verticalAlign=middle;resizable=0;points=[];" vertex="1" connectable="0" parent="Iv19MnFPwsbPoRR4SzWf-70">
          <mxGeometry x="-0.8308" y="-1" relative="1" as="geometry">
            <mxPoint as="offset" />
          </mxGeometry>
        </mxCell>
        <mxCell id="Iv19MnFPwsbPoRR4SzWf-71" value="" style="endArrow=none;html=1;rounded=0;entryX=0.25;entryY=1;entryDx=0;entryDy=0;exitX=0.25;exitY=0;exitDx=0;exitDy=0;" edge="1" parent="WIyWlLk6GJQsqaUBKTNV-1" source="Iv19MnFPwsbPoRR4SzWf-38" target="Iv19MnFPwsbPoRR4SzWf-30">
          <mxGeometry width="50" height="50" relative="1" as="geometry">
            <mxPoint x="748" y="970" as="sourcePoint" />
            <mxPoint x="828" y="920" as="targetPoint" />
          </mxGeometry>
        </mxCell>
        <mxCell id="Iv19MnFPwsbPoRR4SzWf-72" value="0..1" style="edgeLabel;html=1;align=center;verticalAlign=middle;resizable=0;points=[];" vertex="1" connectable="0" parent="Iv19MnFPwsbPoRR4SzWf-71">
          <mxGeometry x="0.7235" y="2" relative="1" as="geometry">
            <mxPoint as="offset" />
          </mxGeometry>
        </mxCell>
        <mxCell id="Iv19MnFPwsbPoRR4SzWf-73" value="2" style="edgeLabel;html=1;align=center;verticalAlign=middle;resizable=0;points=[];" vertex="1" connectable="0" parent="Iv19MnFPwsbPoRR4SzWf-71">
          <mxGeometry x="-0.5605" relative="1" as="geometry">
            <mxPoint as="offset" />
          </mxGeometry>
        </mxCell>
        <mxCell id="Iv19MnFPwsbPoRR4SzWf-74" value="" style="endArrow=none;html=1;rounded=0;entryX=0.25;entryY=1;entryDx=0;entryDy=0;exitX=0.5;exitY=0;exitDx=0;exitDy=0;" edge="1" parent="WIyWlLk6GJQsqaUBKTNV-1" source="Iv19MnFPwsbPoRR4SzWf-38" target="Iv19MnFPwsbPoRR4SzWf-34">
          <mxGeometry width="50" height="50" relative="1" as="geometry">
            <mxPoint x="748" y="970" as="sourcePoint" />
            <mxPoint x="828" y="920" as="targetPoint" />
            <Array as="points">
              <mxPoint x="258" y="750" />
              <mxPoint x="418" y="750" />
            </Array>
          </mxGeometry>
        </mxCell>
        <mxCell id="Iv19MnFPwsbPoRR4SzWf-75" value="0..1" style="edgeLabel;html=1;align=center;verticalAlign=middle;resizable=0;points=[];" vertex="1" connectable="0" parent="Iv19MnFPwsbPoRR4SzWf-74">
          <mxGeometry x="0.8392" y="-1" relative="1" as="geometry">
            <mxPoint as="offset" />
          </mxGeometry>
        </mxCell>
        <mxCell id="Iv19MnFPwsbPoRR4SzWf-76" value="1" style="edgeLabel;html=1;align=center;verticalAlign=middle;resizable=0;points=[];" vertex="1" connectable="0" parent="Iv19MnFPwsbPoRR4SzWf-74">
          <mxGeometry x="-0.8328" y="-2" relative="1" as="geometry">
            <mxPoint as="offset" />
          </mxGeometry>
        </mxCell>
        <mxCell id="Iv19MnFPwsbPoRR4SzWf-77" value="" style="endArrow=none;html=1;rounded=0;entryX=0.5;entryY=1;entryDx=0;entryDy=0;exitX=0.5;exitY=0;exitDx=0;exitDy=0;" edge="1" parent="WIyWlLk6GJQsqaUBKTNV-1" source="Iv19MnFPwsbPoRR4SzWf-39" target="Iv19MnFPwsbPoRR4SzWf-34">
          <mxGeometry width="50" height="50" relative="1" as="geometry">
            <mxPoint x="748" y="970" as="sourcePoint" />
            <mxPoint x="828" y="920" as="targetPoint" />
          </mxGeometry>
        </mxCell>
        <mxCell id="Iv19MnFPwsbPoRR4SzWf-78" value="0..n" style="edgeLabel;html=1;align=center;verticalAlign=middle;resizable=0;points=[];" vertex="1" connectable="0" parent="Iv19MnFPwsbPoRR4SzWf-77">
          <mxGeometry x="0.7235" y="-1" relative="1" as="geometry">
            <mxPoint as="offset" />
          </mxGeometry>
        </mxCell>
        <mxCell id="Iv19MnFPwsbPoRR4SzWf-79" value="1" style="edgeLabel;html=1;align=center;verticalAlign=middle;resizable=0;points=[];" vertex="1" connectable="0" parent="Iv19MnFPwsbPoRR4SzWf-77">
          <mxGeometry x="-0.684" relative="1" as="geometry">
            <mxPoint as="offset" />
          </mxGeometry>
        </mxCell>
        <mxCell id="Iv19MnFPwsbPoRR4SzWf-80" value="" style="endArrow=none;html=1;rounded=0;entryX=0.25;entryY=1;entryDx=0;entryDy=0;exitX=0.799;exitY=-0.018;exitDx=0;exitDy=0;exitPerimeter=0;" edge="1" parent="WIyWlLk6GJQsqaUBKTNV-1" source="Iv19MnFPwsbPoRR4SzWf-38" target="Iv19MnFPwsbPoRR4SzWf-40">
          <mxGeometry width="50" height="50" relative="1" as="geometry">
            <mxPoint x="348" y="800" as="sourcePoint" />
            <mxPoint x="828" y="920" as="targetPoint" />
            <Array as="points">
              <mxPoint x="306" y="770" />
              <mxPoint x="668" y="770" />
            </Array>
          </mxGeometry>
        </mxCell>
        <mxCell id="Iv19MnFPwsbPoRR4SzWf-81" value="0..1" style="edgeLabel;html=1;align=center;verticalAlign=middle;resizable=0;points=[];" vertex="1" connectable="0" parent="Iv19MnFPwsbPoRR4SzWf-80">
          <mxGeometry x="0.9599" y="-2" relative="1" as="geometry">
            <mxPoint as="offset" />
          </mxGeometry>
        </mxCell>
        <mxCell id="Iv19MnFPwsbPoRR4SzWf-82" value="&lt;font color=&quot;#ff0000&quot;&gt;???&lt;/font&gt;" style="edgeLabel;html=1;align=center;verticalAlign=middle;resizable=0;points=[];" vertex="1" connectable="0" parent="Iv19MnFPwsbPoRR4SzWf-80">
          <mxGeometry x="-0.9604" y="-4" relative="1" as="geometry">
            <mxPoint as="offset" />
          </mxGeometry>
        </mxCell>
      </root>
    </mxGraphModel>
  </diagram>
</mxfile>
